<svg id="레이어_1" data-name="레이어 1" xmlns="http://www.w3.org/2000/svg" viewBox="0 0 1857.17 1850.03"><defs><style>.cls-1,.cls-2{fill:#5368e1;}.cls-2{font-size:30px;font-family:AdobeMyungjoStd-Medium-KSCpc-EUC-H, Adobe Myungjo Std;}</style></defs><title>무제-4</title><path class="cls-1" d="M1107.59,123.53c-3.65,10.1-12.07,17.09-25.9,15.82-18.24-1.66-26.16-16.34-24.59-33.57,1.52-16.56,12.1-30.69,30.62-29C1102.1,78.1,1109.15,87,1110,97.36l-8.08-.74c-1.58-6.83-5.51-12.25-15.15-13.13-13.45-1.23-20.06,10.49-21.19,22.82-1.1,12,3,25.05,17,26.34,9.4.86,14-4.15,16.85-9.87Z" transform="translate(-70.18 -76.55)"/><path class="cls-1" d="M1132.6,79.52l-4,26.25c2.85-3.53,7.43-6.58,14.93-5.42,7.06,1.09,14.25,6.16,12.22,19.29l-4.35,28.14-7.58-1.17,4.15-26.88c1.16-7.5-1.37-12.15-7.79-13.14-7.93-1.22-12.25,3.48-13.67,12.66l-3.72,24.11-7.61-1.17L1125,78.34Z" transform="translate(-70.18 -76.55)"/><path class="cls-1" d="M1197.52,147.28a68.89,68.89,0,0,0-1.4,9.64l-7.21-1.51a24,24,0,0,1,.49-5.87c-2.14,2.59-6.43,5.69-14.91,3.91-10.29-2.17-13.28-9.79-11.88-16.43,2.05-9.75,10.65-12.6,23.62-9.86l7.45,1.56.78-3.72c.82-3.85.57-8.81-7.6-10.53-7.29-1.53-9.28,1.83-10.79,5.07l-7.3-1.54c1.85-5.89,7-12.06,19.58-9.39,10.66,2.28,15.65,7.87,13.56,17.8ZM1192.64,134l-7.07-1.48c-8.7-1.84-13.87-.41-15.17,5.74-1,4.54,1.46,8.5,6.85,9.64,10.52,2.21,13.42-4.57,15.09-12.5Z" transform="translate(-70.18 -76.55)"/><path class="cls-1" d="M1215.87,128.37c1.55-6,2.37-9.46,2.93-11.77l7.32,1.89c-.2,1.24-1,4.66-2,8.88,3.76-5.27,9.88-7.72,17.09-6.1l-1.92,7.44c-8.93-2-15.81,1.14-18.62,12.07l-5.4,21-7.46-1.92Z" transform="translate(-70.18 -76.55)"/><path class="cls-1" d="M1270.31,167.43a69.79,69.79,0,0,0-2.23,9.49l-7-2.14a24.44,24.44,0,0,1,1-5.8c-2.35,2.39-6.9,5.11-15.18,2.6-10.07-3.05-12.38-10.91-10.41-17.41,2.89-9.52,11.7-11.61,24.39-7.77l7.28,2.21,1.11-3.63c1.14-3.77,1.33-8.73-6.66-11.15-7.13-2.17-9.41,1-11.2,4.1l-7.13-2.16c2.35-5.71,8-11.41,20.32-7.65,10.42,3.19,14.91,9.19,12,18.9Zm-3.7-13.69-6.91-2.09c-8.52-2.59-13.79-1.62-15.61,4.4-1.35,4.44.72,8.6,6,10.2,10.28,3.11,13.77-3.39,16.12-11.14Z" transform="translate(-70.18 -76.55)"/><path class="cls-1" d="M1303.51,131.77l-18.64-6.61,2.32-6.55,45,16-2.32,6.55-18.67-6.61-18.13,51.15-7.7-2.73Z" transform="translate(-70.18 -76.55)"/><path class="cls-1" d="M1349.55,141.74l-22.84,56.8-7.53-3,22.84-56.8Z" transform="translate(-70.18 -76.55)"/><path class="cls-1" d="M1392.31,208.71c-6.81,8.31-17.08,12.1-29.7,6.29-16.64-7.64-19.23-24.12-12-39.85,7-15.11,21.63-24.91,38.54-17.14,13.12,6,16.8,16.78,14.16,26.83l-7.37-3.39c.79-7-1.12-13.39-9.92-17.43-12.27-5.64-22.41,3.21-27.58,14.46-5,10.92-5.54,24.61,7.3,30.51,8.57,3.95,14.59.76,19.17-3.68Z" transform="translate(-70.18 -76.55)"/><path class="cls-1" d="M1406.9,216.78c-2,7.25.48,13.13,8.28,17.36,8.4,4.55,13.86,2.41,16.61-2.67,2.93-5.4,1.92-9.86-7.46-18.32-11-10-13.06-16.69-9-24.25,4.33-8,13.76-11.32,25.78-4.81,12.81,6.95,14.07,17.22,11,24.68l-7.27-3.94c1.63-5.31.77-10.86-7.08-15.12-6.56-3.55-11.84-2.59-14.62,2.54s-.78,8.69,7.42,16.08c13.32,12.06,12.79,19.5,9,26.41-4.71,8.68-14.83,12-28,4.86-13.54-7.33-15.36-17.89-12-26.75Z" transform="translate(-70.18 -76.55)"/><path class="cls-1" d="M1563.05,319.77c-8.53,6.53-19.39,7.86-30.35-.69-14.43-11.25-13.17-27.89-2.53-41.53,10.23-13.11,26.77-19.29,41.44-7.84,11.38,8.87,12.49,20.18,7.62,29.36l-6.4-5c2.38-6.61,2-13.29-5.64-19.24-10.65-8.3-22.55-2-30.17,7.75-7.39,9.47-11,22.67.11,31.36,7.44,5.81,14,4.09,19.5.81Z" transform="translate(-70.18 -76.55)"/><path class="cls-1" d="M1607.88,296.26l-17.6,19.9c4.31-1.43,9.81-1.52,15.49,3.51,5.36,4.73,8.66,12.88-.14,22.83l-18.86,21.33-5.75-5.08,18-20.37c5-5.68,5.41-11,.55-15.27-6-5.32-12.19-3.7-18.35,3.27l-16.16,18.27-5.77-5.11,42.81-48.38Z" transform="translate(-70.18 -76.55)"/><path class="cls-1" d="M1625.88,388.34a68.45,68.45,0,0,0-6.39,7.36l-5.25-5.17a24.09,24.09,0,0,1,3.58-4.68c-3.2,1-8.49,1.32-14.66-4.75-7.49-7.39-5.88-15.42-1.12-20.25,7-7.1,15.76-4.85,25.21,4.46l5.42,5.34,2.67-2.71c2.76-2.8,5.24-7.1-.71-13-5.31-5.23-8.8-3.48-11.82-1.57l-5.31-5.24c4.73-4,12.43-6.35,21.54,2.68,7.75,7.67,8.93,15.07,1.81,22.3ZM1629,374.5l-5.14-5.07c-6.34-6.25-11.46-7.84-15.87-3.36-3.26,3.31-3.36,7.94.56,11.81,7.65,7.54,13.76,3.4,19.45-2.37Z" transform="translate(-70.18 -76.55)"/><path class="cls-1" d="M1651.54,382.34c4.57-4.25,7.1-6.68,8.82-8.32l5.14,5.53c-.83.94-3.32,3.41-6.5,6.38,6-2.41,12.48-1.16,17.67,4.09l-5.63,5.22c-6.42-6.51-13.93-7.57-22.19.11L1633,410.1l-5.24-5.64Z" transform="translate(-70.18 -76.55)"/><path class="cls-1" d="M1676.31,444.6a69.07,69.07,0,0,0-7,6.79l-4.78-5.61a24.67,24.67,0,0,1,4-4.35c-3.27.75-8.56.59-14.19-6-6.83-8-4.54-15.87.63-20.28,7.57-6.46,16.11-3.47,24.72,6.61,2,2.36,3.86,4.53,4.95,5.79l2.89-2.47c3-2.55,5.83-6.63.4-13-4.84-5.67-8.46-4.23-11.64-2.58l-4.84-5.67c5.06-3.55,12.93-5.27,21.24,4.51,7.06,8.31,7.6,15.79-.12,22.37Zm4.26-13.53-4.69-5.49c-5.77-6.76-10.74-8.79-15.52-4.7-3.53,3-4,7.62-.46,11.81,7,8.17,13.42,4.57,19.58-.69Z" transform="translate(-70.18 -76.55)"/><path class="cls-1" d="M1723.47,432.42l-12.15-15.6,5.49-4.27,29.33,37.68-5.49,4.27-12.16-15.63-42.83,33.33-5-6.45Z" transform="translate(-70.18 -76.55)"/><path class="cls-1" d="M1756.9,465.63l-49.83,35.57-4.71-6.61L1752.18,459Z" transform="translate(-70.18 -76.55)"/><path class="cls-1" d="M1756.88,545c-10.2,3.34-20.9,1-28.42-10.67-9.91-15.39-3.23-30.68,11.32-40,14-9,31.64-9.38,41.71,6.27,7.81,12.14,5.13,23.18-2.49,30.24l-4.4-6.83c4.42-5.45,6.26-11.88,1-20-7.31-11.36-20.62-9.35-31-2.65-10.11,6.5-17.91,17.77-10.26,29.65,5.11,7.93,11.9,8.49,18.14,7.2Z" transform="translate(-70.18 -76.55)"/><path class="cls-1" d="M1764.84,559.69c-5.61,5-6.64,11.33-2.34,19.09,4.63,8.35,10.38,9.48,15.44,6.67,5.37-3,6.92-7.28,3.56-19.46-3.94-14.31-2-21.09,5.48-25.26,8-4.42,17.69-2.15,24.31,9.8,7.08,12.75,2.62,22.09-4,26.71l-4-7.23c4.23-3.6,6.49-8.75,2.16-16.56-3.62-6.52-8.59-8.55-13.69-5.72s-5.33,6.91-2.4,17.56c4.76,17.32.31,23.32-6.56,27.13-8.63,4.79-19,2.15-26.21-10.94-7.48-13.47-3.33-23.35,4.26-29Z" transform="translate(-70.18 -76.55)"/><path class="cls-1" d="M1841.12,730.52c-10.7.9-20.57-3.82-25.21-16.92-6.11-17.26,3.9-30.6,20.22-36.37,15.68-5.55,32.94-1.86,39.15,15.68,4.82,13.62-.33,23.75-9.37,28.86l-2.71-7.65c5.55-4.29,8.82-10.13,5.59-19.26-4.51-12.73-17.92-13.83-29.6-9.7-11.32,4-21.5,13.18-16.79,26.5,3.15,8.9,9.63,11,16,11.18Z" transform="translate(-70.18 -76.55)"/><path class="cls-1" d="M1891.55,734.87,1866,742.14c4.4,1.12,9.08,4,11.16,11.31,2,6.87.35,15.52-12.42,19.15l-27.39,7.8-2.1-7.37,26.15-7.45c7.3-2.08,10.47-6.32,8.69-12.57-2.2-7.71-8.27-9.68-17.21-7.13l-23.46,6.68-2.11-7.41,62.13-17.69Z" transform="translate(-70.18 -76.55)"/><path class="cls-1" d="M1857.06,822.11a69.4,69.4,0,0,0-9.35,2.75l-1.63-7.18a24.31,24.31,0,0,1,5.54-2c-3.25-.86-7.86-3.46-9.78-11.91-2.32-10.26,3.37-16.15,10-17.65,9.72-2.2,15.89,4.42,18.82,17.35.69,3,1.31,5.8,1.68,7.42L1876,810c3.84-.86,8.24-3.15,6.4-11.3-1.65-7.26-5.53-7.67-9.11-7.7l-1.65-7.26c6.13-.79,13.9,1.35,16.7,13.87,2.38,10.64-.61,17.51-10.51,19.75Zm10.07-10c-.32-1.39-1.07-4.7-1.6-7-2-8.68-5.42-12.78-11.55-11.39-4.53,1-7.12,4.88-5.9,10.25,2.37,10.47,9.75,10.29,17.65,8.5Z" transform="translate(-70.18 -76.55)"/><path class="cls-1" d="M1881.91,830.93c6.14-1.1,9.58-1.78,11.91-2.24l1.34,7.44c-1.21.34-4.63,1.08-8.92,1.85,6.36,1.22,11.14,5.77,12.68,13l-7.56,1.37c-1.9-9-7.64-13.9-18.74-11.89l-21.32,3.85-1.37-7.59Z" transform="translate(-70.18 -76.55)"/><path class="cls-1" d="M1869.13,896.7a68.58,68.58,0,0,0-9.56,1.93l-1-7.3a24.15,24.15,0,0,1,5.69-1.52c-3.16-1.14-7.53-4.13-8.7-12.71-1.43-10.42,4.75-15.8,11.47-16.72,9.87-1.35,15.44,5.78,17.24,18.92.42,3.07.81,5.89,1,7.54l3.77-.52c3.89-.53,8.48-2.43,7.35-10.7-1-7.38-4.84-8.13-8.4-8.46l-1-7.38c6.17-.25,13.72,2.55,15.43,15.26,1.45,10.81-2.13,17.39-12.19,18.77Zm10.89-9.08c-.19-1.41-.66-4.77-1-7.16-1.21-8.81-4.29-13.19-10.52-12.34-4.6.63-7.51,4.24-6.77,9.69,1.46,10.65,8.83,11.1,16.85,10Z" transform="translate(-70.18 -76.55)"/><path class="cls-1" d="M1915.39,912l-1.79-19.69,6.93-.63,4.3,47.55-6.92.63-1.79-19.72-54,4.89-.74-8.14Z" transform="translate(-70.18 -76.55)"/><path class="cls-1" d="M1925.55,958l-61.14,3-.4-8.11,61.15-3Z" transform="translate(-70.18 -76.55)"/><path class="cls-1" d="M1882.64,1024.75c-10.4-2.7-18.14-10.44-18.16-24.33,0-18.31,13.86-27.56,31.17-27.59,16.62,0,31.68,9.21,31.7,27.82,0,14.43-8.21,22.28-18.44,24.09v-8.11c6.67-2.2,11.69-6.62,11.68-16.3,0-13.51-12.3-19-24.68-19-12,0-24.67,5.28-24.65,19.41,0,9.44,5.43,13.57,11.38,15.86Z" transform="translate(-70.18 -76.55)"/><path class="cls-1" d="M1881.44,1041.4c-7.44,1.19-11.71,5.95-12.27,14.8-.6,9.53,3.63,13.59,9.4,14,6.13.38,9.75-2.41,13.49-14.47,4.41-14.18,9.65-18.86,18.24-18.32,9.08.57,16,7.73,15.19,21.37-.92,14.55-9.71,20-17.79,20.32l.53-8.24c5.5-.75,10.18-3.87,10.74-12.79.47-7.44-2.62-11.82-8.44-12.19s-8.21,2.94-11.48,13.48c-5.34,17.16-12.32,19.81-20.16,19.31-9.86-.62-17.12-8.41-16.17-23.35,1-15.37,9.78-21.45,19.24-22.13Z" transform="translate(-70.18 -76.55)"/><path class="cls-1" d="M1853.68,1226.39c-9.5-5-15.28-14.29-12.14-27.83,4.15-17.83,19.77-23.68,36.62-19.76,16.2,3.76,28.76,16.17,24.55,34.29-3.27,14.07-13.06,19.83-23.44,19.27l1.84-7.9c7-.63,12.89-3.79,15.08-13.22,3-13.15-7.65-21.31-19.72-24.11-11.7-2.72-25.21-.47-28.41,13.29-2.14,9.19,2.19,14.45,7.47,18Z" transform="translate(-70.18 -76.55)"/><path class="cls-1" d="M1893.83,1257.23l-25.44-7.62c3.1,3.3,5.49,8.26,3.32,15.53-2.06,6.85-8.07,13.27-20.79,9.46l-27.28-8.18,2.2-7.34,26.05,7.8c7.27,2.18,12.23.31,14.09-5.91,2.31-7.69-1.76-12.61-10.66-15.28l-23.37-7,2.21-7.38,61.88,18.54Z" transform="translate(-70.18 -76.55)"/><path class="cls-1" d="M1817.81,1312.19a68.47,68.47,0,0,0-9.37-2.71l2.5-6.94a25.06,25.06,0,0,1,5.74,1.29c-2.27-2.47-4.75-7.15-1.82-15.29,3.56-9.9,11.53-11.81,17.91-9.51,9.37,3.37,11,12.27,6.52,24.75-1,2.92-2,5.6-2.58,7.16l3.58,1.29c3.7,1.33,8.65,1.78,11.47-6.08,2.53-7-.52-9.45-3.53-11.39l2.53-7c5.58,2.63,11,8.62,6.61,20.68-3.72,10.25-9.95,14.42-19.5,11Zm13.86-3c.48-1.34,1.63-4.53,2.44-6.8,3-8.37,2.31-13.68-3.6-15.81-4.37-1.57-8.63.28-10.49,5.46-3.64,10.11,2.68,13.92,10.3,16.67Z" transform="translate(-70.18 -76.55)"/><path class="cls-1" d="M1834,1333c5.77,2.37,9,3.65,11.25,4.52l-2.87,7c-1.2-.37-4.49-1.59-8.52-3.24,4.7,4.45,6.29,10.85,3.69,17.76l-7.1-2.92c3.22-8.56,1-15.82-9.4-20.11l-20-8.24,2.93-7.12Z" transform="translate(-70.18 -76.55)"/><path class="cls-1" d="M1787.82,1381.54a66.71,66.71,0,0,0-9.1-3.52l3.09-6.7a24.67,24.67,0,0,1,5.61,1.79c-2-2.66-4.11-7.54-.48-15.4,4.41-9.55,12.51-10.76,18.67-7.91,9,4.17,9.9,13.19,4.34,25.23l-3.19,6.91,3.45,1.59c3.57,1.65,8.46,2.52,12-5.06,3.12-6.77.3-9.46-2.53-11.65l3.13-6.77c5.33,3.11,10.19,9.54,4.78,21.18-4.6,9.88-11.16,13.5-20.37,9.25Zm14.06-1.79,3-6.56c3.73-8.07,3.5-13.43-2.21-16.06-4.22-2-8.62-.48-10.93,4.52-4.5,9.75,1.46,14.1,8.82,17.5Z" transform="translate(-70.18 -76.55)"/><path class="cls-1" d="M1818.57,1419.32l9.1-17.55,6.17,3.2-22,42.38-6.18-3.2,9.12-17.58-48.17-25,3.77-7.26Z" transform="translate(-70.18 -76.55)"/><path class="cls-1" d="M1802.36,1463.55l-53.12-30.44,4-7,53.12,30.44Z" transform="translate(-70.18 -76.55)"/><path class="cls-1" d="M1730.19,1496.68c-7.29-7.89-9.64-18.58-2.16-30.29,9.85-15.43,26.53-15.73,41.11-6.42,14,9,21.72,24.84,11.7,40.52-7.77,12.17-18.93,14.34-28.52,10.35l4.37-6.84c6.8,1.74,13.41.73,18.62-7.43,7.27-11.37-.1-22.64-10.54-29.3-10.12-6.47-23.61-8.86-31.22,3-5.08,8-2.75,14.35,1,19.49Z" transform="translate(-70.18 -76.55)"/><path class="cls-1" d="M1720.2,1510c-6.9-3-13.07-1.31-18.32,5.84-5.66,7.69-4.29,13.39.37,16.81,5,3.64,9.5,3.25,19.17-4.88,11.36-9.55,18.31-10.66,25.25-5.56,7.32,5.38,9.32,15.17,1.23,26.18-8.64,11.75-19,11.6-25.94,7.5l4.89-6.66c5,2.34,10.66,2.25,16-5,4.41-6,4.18-11.37-.52-14.82s-8.5-2-17,5.14c-13.76,11.55-21.06,10-27.39,5.36-8-5.85-9.86-16.33-1-28.39,9.12-12.41,19.82-12.77,28.14-8.23Z" transform="translate(-70.18 -76.55)"/><path class="cls-1" d="M1596.89,1650.69c-5.31-9.34-5.15-20.28,4.8-30,13.12-12.78,29.43-9.26,41.5,3.13,11.6,11.92,15.47,29.14,2.14,42.12-10.35,10.07-21.7,9.64-30.13,3.57l5.81-5.67c6.23,3.25,12.9,3.78,19.83-3,9.68-9.42,5.07-22.06-3.57-30.93-8.38-8.61-21-14-31.09-4.16-6.76,6.58-6,13.34-3.46,19.21Z" transform="translate(-70.18 -76.55)"/><path class="cls-1" d="M1614.08,1698.3l-17.32-20.14c.83,4.46.18,9.92-5.58,14.87-5.42,4.66-13.94,6.83-22.6-3.24L1550,1668.2l5.82-5,17.73,20.62c5,5.75,10.13,6.85,15,2.62,6.09-5.24,5.32-11.57-.74-18.62l-15.91-18.5,5.84-5,42.12,49Z" transform="translate(-70.18 -76.55)"/><path class="cls-1" d="M1520.41,1703.63a69,69,0,0,0-6.42-7.34l5.84-4.5A25,25,0,0,1,1524,1696c-.58-3.31-.16-8.59,6.7-13.87,8.34-6.42,16.08-3.74,20.22,1.64,6.07,7.89,2.66,16.27-7.85,24.36l-6,4.65,2.32,3c2.4,3.11,6.33,6.15,12.94,1.06,5.91-4.55,4.65-8.25,3.17-11.5l5.9-4.55c3.28,5.23,4.61,13.18-5.57,21-8.66,6.63-16.15,6.8-22.34-1.24Zm13.3,4.93,5.72-4.41c7-5.43,9.32-10.28,5.48-15.26-2.83-3.68-7.41-4.41-11.78-1.05-8.51,6.55-5.24,13.17-.29,19.59Z" transform="translate(-70.18 -76.55)"/><path class="cls-1" d="M1522.88,1729.86c3.58,5.11,5.65,8,7,9.87l-6.18,4.34c-.82-1-2.93-3.75-5.43-7.31,1.56,6.28-.55,12.53-6.46,17l-4.42-6.29c7.34-5.48,9.4-12.77,2.91-22l-12.45-17.73,6.3-4.43Z" transform="translate(-70.18 -76.55)"/><path class="cls-1" d="M1457.82,1746a68,68,0,0,0-5.78-7.86l6.21-4a24.91,24.91,0,0,1,3.77,4.52c-.3-3.34.58-8.57,7.87-13.24,8.85-5.68,16.33-2.34,20,3.37,5.38,8.38,1.26,16.44-9.9,23.6l-6.41,4.11,2,3.2c2.13,3.31,5.78,6.67,12.81,2.17,6.27-4,5.33-7.82,4.13-11.19l6.28-4c2.82,5.49,3.46,13.52-7.36,20.42-9.19,5.87-16.67,5.39-22.15-3.15Zm12.82,6,6.07-3.89c7.49-4.81,10.17-9.45,6.78-14.74-2.51-3.91-7-5-11.64-2.06-9,5.8-6.36,12.67-2,19.49Z" transform="translate(-70.18 -76.55)"/><path class="cls-1" d="M1463.44,1794.33l17.12-9.91,3.48,6-41.33,23.92-3.48-6,17.14-9.92-27.18-47,7.07-4.09Z" transform="translate(-70.18 -76.55)"/><path class="cls-1" d="M1426,1822.91l-28.43-54.22,7.19-3.77,28.43,54.22Z" transform="translate(-70.18 -76.55)"/><path class="cls-1" d="M1347.32,1812.05c-1.91-10.57,1.85-20.84,14.46-26.7,16.6-7.71,30.83,1,38.12,16.69,7,15.08,5,32.62-11.92,40.46-13.09,6.08-23.66,1.91-29.61-6.61l7.36-3.42c4.8,5.13,10.92,7.83,19.7,3.75,12.24-5.69,12.08-19.15,6.86-30.38-5.06-10.9-15.15-20.16-28-14.21-8.57,4-10,10.62-9.62,17Z" transform="translate(-70.18 -76.55)"/><path class="cls-1" d="M1331.7,1817.93c-4.2-6.25-10.31-8.14-18.59-4.94-8.9,3.44-10.82,9-8.73,14.38,2.22,5.73,6.27,7.85,18.79,6.19,14.71-1.93,21.17.87,24.27,8.89,3.28,8.48-.3,17.81-13,22.74-13.6,5.26-22.24-.43-25.9-7.64l7.7-3c3,4.69,7.78,7.63,16.11,4.41,7-2.69,9.64-7.33,7.54-12.77s-6.11-6.23-17.06-4.78c-17.81,2.33-23.14-2.89-26-10.22-3.56-9.21.47-19.07,14.43-24.47,14.36-5.55,23.58-.09,28.15,8.21Z" transform="translate(-70.18 -76.55)"/><path class="cls-1" d="M1152,1870c.58-10.72,6.61-19.85,20.22-22.64,17.94-3.67,29.78,8.08,33.25,25,3.33,16.29-2.71,32.88-20.93,36.61-14.15,2.9-23.48-3.6-27.3-13.26l8-1.63c3.48,6.09,8.81,10.14,18.3,8.19,13.23-2.7,16.17-15.84,13.69-28-2.41-11.77-10.09-23.12-23.93-20.28-9.25,1.89-12.22,8-13.28,14.31Z" transform="translate(-70.18 -76.55)"/><path class="cls-1" d="M1140.78,1919.34l-3.69-26.31c-1.71,4.2-5.22,8.45-12.73,9.5-7.08,1-15.43-1.79-17.27-14.94l-4-28.2,7.59-1.06,3.78,26.92c1.06,7.52,4.83,11.24,11.26,10.34,7.94-1.12,10.72-6.86,9.43-16.07l-3.39-24.15,7.62-1.08,9,64Z" transform="translate(-70.18 -76.55)"/><path class="cls-1" d="M1059.07,1873.19a68.79,68.79,0,0,0-1.44-9.64l7.34-.63a24.53,24.53,0,0,1,1.23,5.76c1.3-3.1,4.51-7.31,13.14-8,10.48-.9,15.54,5.54,16.11,12.31.85,9.92-6.55,15.12-19.77,16.25l-7.58.65.32,3.79c.34,3.91,2,8.6,10.32,7.88,7.42-.63,8.36-4.42,8.87-8l7.43-.64c-.06,6.18-3.25,13.58-16,14.64-10.87.9-17.26-3-18.12-13.12Zm8.52,11.34,7.19-.61c8.86-.76,13.4-3.62,12.86-9.88-.39-4.62-3.85-7.72-9.33-7.25-10.71.91-11.53,8.25-10.84,16.32Z" transform="translate(-70.18 -76.55)"/><path class="cls-1" d="M1047,1896.6c.26,6.23.46,9.74.59,12.11l-7.54.31c-.17-1.25-.44-4.74-.62-9.09-2.08,6.13-7.23,10.25-14.59,10.78l-.32-7.67c9.13-.66,14.81-5.67,14.34-17l-.9-21.64,7.69-.32Z" transform="translate(-70.18 -76.55)"/><path class="cls-1" d="M983.56,1875a69.84,69.84,0,0,0-.61-9.72h7.37a24.88,24.88,0,0,1,.73,5.84c1.56-3,5.12-6.9,13.78-6.89,10.51,0,15,6.85,15,13.64,0,10-7.83,14.51-21.09,14.5h-7.61v3.8c0,3.93,1.26,8.74,9.6,8.74,7.46,0,8.72-3.69,9.53-7.18h7.45c-.59,6.14-4.39,13.25-17.22,13.21-10.9,0-16.94-4.48-16.94-14.62Zm7.52,12h7.22c8.89,0,13.66-2.45,13.66-8.74,0-4.64-3.18-8-8.68-8-10.75,0-12.2,7.23-12.2,15.33Z" transform="translate(-70.18 -76.55)"/><path class="cls-1" d="M962.17,1918.74l19.75.9-.31,6.94-47.7-2.16.31-6.94,19.78.89,2.46-54.21,8.16.37Z" transform="translate(-70.18 -76.55)"/><path class="cls-1" d="M915.24,1922.61l5.28-61,8.09.7-5.29,61Z" transform="translate(-70.18 -76.55)"/><path class="cls-1" d="M854.81,1871.08c4.09-9.93,12.8-16.56,26.57-14.7,18.14,2.44,25.44,17.45,23.12,34.59-2.22,16.49-13.39,30.16-31.83,27.67-14.31-1.93-21-11.14-21.39-21.52l8,1.09c1.28,6.9,5,12.47,14.58,13.77,13.38,1.8,20.49-9.63,22.15-21.9,1.6-11.91-1.9-25.15-15.91-27-9.35-1.26-14.18,3.55-17.25,9.13Z" transform="translate(-70.18 -76.55)"/><path class="cls-1" d="M838.52,1867.63c-.17-7.52-4.3-12.41-13-14.16-9.36-1.9-13.95,1.74-15.1,7.41-1.22,6,1.06,10,12.5,15.33,13.44,6.3,17.37,12.14,15.67,20.57-1.8,8.91-9.85,14.85-23.24,12.14-14.29-2.89-18.5-12.34-17.72-20.38l8.1,1.63c0,5.56,2.45,10.62,11.21,12.39,7.3,1.48,12.07-1,13.23-6.7s-1.8-8.54-11.8-13.22c-16.27-7.62-18-14.89-16.39-22.6,2-9.67,10.66-15.81,25.34-12.84,15.09,3,19.92,12.61,19.3,22.07Z" transform="translate(-70.18 -76.55)"/><path class="cls-1" d="M659.06,1814.78c6.26-8.73,16.26-13.17,29.24-8.2,17.09,6.56,20.73,22.84,14.53,39-6,15.53-20,26.26-37.34,19.6-13.48-5.18-17.84-15.67-15.86-25.87l7.57,2.91c-.34,7,2,13.29,11,16.75,12.6,4.84,22.16-4.64,26.59-16.2,4.31-11.22,3.94-24.92-9.25-30-8.81-3.38-14.61.19-18.89,4.92Z" transform="translate(-70.18 -76.55)"/><path class="cls-1" d="M623,1850.31l11.05-24.15c-3.71,2.62-9,4.31-15.85,1.15-6.5-3-12-9.81-6.51-21.89l11.85-25.9,7,3.19-11.32,24.73c-3.15,6.91-2,12.07,3.92,14.77,7.3,3.34,12.73,0,16.6-8.46l10.15-22.18,7,3.2L630,1853.52Z" transform="translate(-70.18 -76.55)"/><path class="cls-1" d="M579,1767.43a70.94,70.94,0,0,0,4-8.9l6.52,3.43a24.45,24.45,0,0,1-2.07,5.51c2.76-1.91,7.74-3.73,15.4.3,9.32,4.89,10.11,13,6.95,19-4.63,8.81-13.67,9.21-25.41,3l-6.74-3.53-1.76,3.36c-1.83,3.48-2.95,8.32,4.44,12.2,6.6,3.47,9.43.78,11.77-1.93l6.59,3.47c-3.38,5.17-10.05,9.69-21.39,3.7-9.64-5.1-12.91-11.84-8.2-20.82Zm1.07,14.14,6.39,3.36c7.87,4.13,13.23,4.17,16.16-1.4,2.15-4.1.91-8.57-4-11.13-9.51-5-14.15.73-17.92,7.91Z" transform="translate(-70.18 -76.55)"/><path class="cls-1" d="M556.21,1780.62c-3.14,5.39-4.86,8.46-6,10.52l-6.52-3.8c.52-1.14,2.18-4.23,4.38-8-5.06,4-11.62,4.73-18.11,1.21l3.87-6.63c8,4.37,15.53,3.2,21.21-6.55l10.91-18.71,6.65,3.88Z" transform="translate(-70.18 -76.55)"/><path class="cls-1" d="M514.45,1728.21a69.43,69.43,0,0,0,4.73-8.52l6.2,4a24.86,24.86,0,0,1-2.53,5.31c2.91-1.67,8-3,15.32,1.62,8.85,5.68,8.94,13.87,5.27,19.58-5.37,8.39-14.41,8-25.58.85l-6.4-4.11-2.06,3.2c-2.12,3.31-3.65,8,3.38,12.54,6.27,4,9.32,1.59,11.89-.91l6.27,4c-3.81,4.86-10.85,8.79-21.63,1.84-9.16-5.91-11.85-12.9-6.37-21.45Zm-.16,14.18,6.08,3.9c7.49,4.8,12.82,5.3,16.22,0,2.5-3.9,1.65-8.46-3-11.43-9-5.8-14.17-.49-18.54,6.33Z" transform="translate(-70.18 -76.55)"/><path class="cls-1" d="M472.81,1753.5,489,1764.92l-4,5.68L446,1743l4-5.68,16.16,11.44,31.35-44.3,6.67,4.72Z" transform="translate(-70.18 -76.55)"/><path class="cls-1" d="M431.2,1731.38l37.42-48.45,6.42,5-37.41,48.45Z" transform="translate(-70.18 -76.55)"/><path class="cls-1" d="M408.24,1655.38c8.81-6.15,19.72-7,30.3,2,13.94,11.87,12,28.43.75,41.61-10.78,12.66-27.57,18.12-41.73,6.06-11-9.36-11.63-20.7-6.37-29.66l6.18,5.26c-2.65,6.5-2.55,13.19,4.82,19.46,10.28,8.75,22.45,3,30.47-6.45,7.79-9.15,12-22.18,1.24-31.34-7.19-6.12-13.84-4.68-19.45-1.64Z" transform="translate(-70.18 -76.55)"/><path class="cls-1" d="M396.38,1643.67c3.92-6.43,3.08-12.77-3.29-19-6.85-6.65-12.68-6.07-16.71-1.92-4.28,4.41-4.51,9,2.24,19.66,7.91,12.56,8.06,19.59,2.07,25.77-6.33,6.53-16.31,7.18-26.12-2.34-10.46-10.15-8.9-20.38-3.89-26.72l5.93,5.75c-3,4.67-3.67,10.25,2.74,16.47,5.35,5.19,10.69,5.7,14.75,1.51s3.1-8.16-2.79-17.49c-9.57-15.21-7.05-22.23-1.58-27.87,6.88-7.09,17.52-7.55,28.26,2.88,11.06,10.72,9.95,21.37,4.32,29Z" transform="translate(-70.18 -76.55)"/><path class="cls-1" d="M273.79,1502.38c10-4,20.79-2.34,29,8.84,10.87,14.73,5.18,30.41-8.75,40.69-13.38,9.87-31,11.36-42-3.61-8.57-11.62-6.6-22.81.57-30.34l4.81,6.53c-4.06,5.72-5.49,12.26.26,20,8,10.87,21.18,8,31.14.67,9.67-7.13,16.74-18.87,8.35-30.24-5.61-7.59-12.41-7.71-18.57-6Z" transform="translate(-70.18 -76.55)"/><path class="cls-1" d="M224.27,1512.93l22.31-14.42c-4.53.22-9.86-1.18-14-7.55-3.89-6-4.87-14.75,6.28-22l23.92-15.46L267,1460l-22.84,14.76c-6.37,4.12-8.16,9.1-4.64,14.56,4.36,6.74,10.74,6.84,18.55,1.8l20.48-13.24,4.19,6.47-54.26,35.06Z" transform="translate(-70.18 -76.55)"/><path class="cls-1" d="M231.76,1419.4a69,69,0,0,0,8.14-5.36l3.66,6.4a24.49,24.49,0,0,1-4.71,3.53c3.36-.12,8.53,1,12.83,8.53,5.22,9.13,1.5,16.43-4.39,19.8-8.64,5-16.48.42-23.06-11.09l-3.78-6.61-3.3,1.89c-3.42,2-7,5.43-2.82,12.68,3.7,6.47,7.54,5.72,11,4.7l3.7,6.47c-5.63,2.54-13.68,2.77-20-8.38-5.39-9.49-4.53-16.93,4.28-22Zm-6.7,12.5c.7,1.24,2.39,4.18,3.58,6.27,4.42,7.72,8.92,10.63,14.38,7.51,4-2.3,5.38-6.74,2.64-11.52-5.33-9.33-12.33-7-19.36-3Z" transform="translate(-70.18 -76.55)"/><path class="cls-1" d="M205.43,1418.26c-5.55,2.86-8.64,4.52-10.74,5.63l-3.45-6.71c1-.68,4.11-2.39,8-4.38-6.43.69-12.33-2.26-15.91-8.72l6.83-3.51c4.43,8,11.37,11,21.4,5.89l19.26-9.92,3.52,6.85Z" transform="translate(-70.18 -76.55)"/><path class="cls-1" d="M198.39,1351.63A69.72,69.72,0,0,0,207,1347l3.09,6.69a24.41,24.41,0,0,1-5,3.12c3.35.16,8.4,1.75,12,9.61,4.41,9.54.08,16.5-6.08,19.34-9,4.18-16.45-1-22-13-1.3-2.82-2.5-5.39-3.2-6.91l-3.45,1.6c-3.57,1.65-7.4,4.81-3.89,12.38,3.12,6.77,7,6.36,10.51,5.63l3.13,6.77c-5.83,2-13.87,1.58-19.23-10.08-4.55-9.91-3-17.25,6.16-21.51Zm-7.75,11.87,3,6.55c3.73,8.08,8,11.37,13.67,8.73,4.21-2,5.94-6.26,3.63-11.25-4.51-9.75-11.68-8-19-4.63Z" transform="translate(-70.18 -76.55)"/><path class="cls-1" d="M149.69,1350.55l7.47,18.31-6.44,2.62-18-44.21,6.44-2.63L146.6,1343l50.25-20.49,3.09,7.57Z" transform="translate(-70.18 -76.55)"/><path class="cls-1" d="M126.52,1309.55l57.61-20.72,2.75,7.64-57.61,20.72Z" transform="translate(-70.18 -76.55)"/><path class="cls-1" d="M148.09,1233.1c10.73-.44,20.39,4.7,24.45,18,5.36,17.51-5.22,30.4-21.77,35.47-15.91,4.86-33,.42-38.44-17.37-4.22-13.81,1.36-23.71,10.62-28.43l2.37,7.76c-5.73,4-9.25,9.74-6.42,19,3.95,12.91,17.31,14.6,29.15,11,11.49-3.52,22.06-12.23,17.92-25.75-2.76-9-9.14-11.4-15.5-11.86Z" transform="translate(-70.18 -76.55)"/><path class="cls-1" d="M144.42,1216.83c6.77-3.3,9.48-9.09,7.45-17.73-2.18-9.29-7.41-11.95-13-10.63-6,1.41-8.63,5.13-8.72,17.76-.11,14.84-3.77,20.84-12.15,22.81-8.85,2.08-17.6-2.75-20.73-16-3.33-14.19,3.5-22,11.14-24.6l1.89,8c-5.05,2.31-8.62,6.65-6.58,15.35,1.7,7.25,5.93,10.56,11.61,9.22s7-5.19,7.08-16.23c.15-18,6-22.52,13.7-24.32,9.62-2.25,18.82,3.1,22.24,17.67,3.53,15-3.15,23.37-12,26.75Z" transform="translate(-70.18 -76.55)"/><path class="cls-1" d="M117.55,1031.71c10.54,2,18.76,9.26,19.66,23.13,1.18,18.27-12.09,28.38-29.35,29.5-16.6,1.07-32.2-7.18-33.4-25.74-.94-14.41,6.77-22.76,16.87-25.22l.52,8.1c-6.51,2.62-11.25,7.34-10.62,17,.87,13.48,13.48,18.19,25.83,17.39,12-.77,24.28-6.82,23.37-20.92-.61-9.42-6.27-13.2-12.36-15.11Z" transform="translate(-70.18 -76.55)"/><path class="cls-1" d="M70.18,1013.82l26.57-.07c-3.93-2.27-7.66-6.32-7.68-13.91,0-7.15,3.87-15,17.15-15.08l28.48-.08,0,7.67-27.19.08c-7.59,0-11.79,3.25-11.78,9.74,0,8,5.34,11.56,14.64,11.54l24.4-.08,0,7.71-64.6.19Z" transform="translate(-70.18 -76.55)"/><path class="cls-1" d="M127,939.19a69.44,69.44,0,0,0,9.75-.13l-.37,7.36a24.75,24.75,0,0,1-5.87.44c2.89,1.7,6.63,5.46,6.19,14.1-.53,10.51-7.59,14.65-14.37,14.31-10-.5-14.1-8.54-13.43-21.79.15-3.1.29-5.93.38-7.6l-3.8-.19c-3.93-.2-8.79.82-9.21,9.16-.37,7.44,3.26,8.88,6.69,9.87l-.37,7.44c-6.11-.9-13-5-12.34-17.86.58-10.89,5.32-16.69,15.45-16.18Zm-12.38,6.9c-.08,1.43-.25,4.81-.37,7.22-.44,8.88,1.77,13.76,8,14.08,4.64.23,8.17-2.78,8.45-8.28.54-10.73-6.62-12.54-14.71-12.94Z" transform="translate(-70.18 -76.55)"/><path class="cls-1" d="M105.42,924c-6.21-.59-9.71-.86-12.08-1l.71-7.52c1.26,0,4.75.21,9.09.62-5.8-2.89-9.18-8.55-8.71-15.92l7.64.72c-.58,9.14,3.62,15.44,14.85,16.49l21.57,2-.72,7.67Z" transform="translate(-70.18 -76.55)"/><path class="cls-1" d="M135.4,864.08a68.69,68.69,0,0,0,9.72.71l-1,7.3a24.37,24.37,0,0,1-5.88-.06c2.73,1.94,6.14,6,5,14.58-1.42,10.42-8.81,13.95-15.54,13-9.87-1.35-13.32-9.72-11.53-22.86.42-3.07.81-5.89,1-7.54l-3.77-.51c-3.9-.54-8.83.06-10,8.33-1,7.39,2.48,9.13,5.83,10.41l-1,7.38c-6-1.41-12.54-6.14-10.77-18.85,1.5-10.8,6.72-16.18,16.78-14.8Zm-12.93,5.83c-.2,1.41-.66,4.77-1,7.15-1.21,8.82.58,13.87,6.82,14.72,4.59.63,8.37-2.07,9.12-7.52,1.45-10.65-5.52-13.06-13.55-14.16Z" transform="translate(-70.18 -76.55)"/><path class="cls-1" d="M94.94,837l-3.57,19.45-6.84-1.26,8.61-47,6.84,1.26-3.57,19.47,53.37,9.79-1.48,8Z" transform="translate(-70.18 -76.55)"/><path class="cls-1" d="M97.49,789.91l59.7,13.56-1.8,7.92-59.7-13.57Z" transform="translate(-70.18 -76.55)"/><path class="cls-1" d="M156.81,737.12c9.28,5.41,14.65,14.94,10.92,28.33-4.91,17.63-20.76,22.8-37.43,18.16-16-4.46-28-17.4-23-35.32,3.87-13.91,13.9-19.24,24.24-18.24l-2.17,7.82c-7,.32-13,3.22-15.64,12.55-3.62,13,6.73,21.62,18.65,24.94,11.58,3.22,25.18,1.56,29-12.05,2.54-9.09-1.57-14.53-6.68-18.34Z" transform="translate(-70.18 -76.55)"/><path class="cls-1" d="M162.48,721.42c7.48.86,12.89-2.56,15.83-10.93,3.16-9,.19-14.07-5.27-16-5.8-2-10-.33-16.91,10.27-8.09,12.45-14.41,15.54-22.53,12.68-8.58-3-13.35-11.79-8.82-24.68,4.83-13.76,14.77-16.63,22.63-14.74l-2.74,7.79c-5.5-.77-10.85,1-13.81,9.39-2.47,7-.69,12.1,4.82,14s8.7-.61,14.71-9.87c9.79-15.06,17.23-15.72,24.64-13.12,9.32,3.28,14.19,12.74,9.24,26.87-5.11,14.53-15.24,18-24.53,16.08Z" transform="translate(-70.18 -76.55)"/><path class="cls-1" d="M239.53,551c7.78,7.4,10.81,17.92,4.09,30.09-8.84,16-25.47,17.4-40.62,9-14.56-8-23.26-23.4-14.27-39.69,7-12.64,18-15.52,27.8-12.16l-3.92,7.11c-6.9-1.3-13.43.13-18.11,8.6-6.53,11.83,1.56,22.59,12.4,28.58,10.52,5.8,24.13,7.33,31-5,4.56-8.26,1.82-14.5-2.27-19.38Z" transform="translate(-70.18 -76.55)"/><path class="cls-1" d="M209.27,510.38l22.41,14.26c-2.09-4-3-9.45,1-15.85,3.84-6,11.37-10.57,22.58-3.45l24,15.29-4.12,6.47-22.94-14.6c-6.4-4.07-11.68-3.62-15.16,1.86-4.31,6.77-1.74,12.61,6.1,17.6l20.58,13.1-4.13,6.49-54.5-34.67Z" transform="translate(-70.18 -76.55)"/><path class="cls-1" d="M297.38,478.18a70.06,70.06,0,0,0,8.27,5.16l-4.29,6a24.49,24.49,0,0,1-5.17-2.8c1.51,3,2.63,8.17-2.41,15.21C287.67,510.3,279.48,510,274,506c-8.1-5.79-7.25-14.8.46-25.59l4.43-6.19-3.1-2.21c-3.19-2.29-7.83-4.06-12.69,2.73-4.34,6.06-2.06,9.24.3,11.92L259,492.74c-4.66-4.05-8.23-11.28-.74-21.69,6.37-8.85,13.49-11.18,21.74-5.28Zm-14.16-.88c-.82,1.16-2.8,3.92-4.2,5.87-5.17,7.24-5.94,12.54-.83,16.2,3.78,2.7,8.38,2.08,11.58-2.4,6.25-8.74,1.2-14.13-5.38-18.84Z" transform="translate(-70.18 -76.55)"/><path class="cls-1" d="M287.45,453.75c-4.91-3.85-7.71-6-9.6-7.41l4.66-5.95c1.06.68,3.89,2.75,7.31,5.43-3.31-5.56-3.09-12.15,1.28-18.09l6,4.73c-5.43,7.37-5.29,15,3.58,21.91l17,13.36L313,473.79Z" transform="translate(-70.18 -76.55)"/><path class="cls-1" d="M345.05,419.54a70.46,70.46,0,0,0,7.8,5.85l-4.78,5.6a24.11,24.11,0,0,1-4.92-3.23c1.25,3.11,1.92,8.37-3.7,14.95-6.83,8-15,7-20.12,2.56-7.57-6.47-6-15.37,2.66-25.46l4.94-5.78L324,411.56c-3-2.56-7.46-4.72-12.88,1.63-4.84,5.66-2.85,9-.73,11.9l-4.84,5.67c-4.29-4.44-7.22-11.95,1.13-21.68,7.1-8.27,14.4-10,22.12-3.39Zm-14-2.09-4.69,5.49c-5.78,6.77-7,12-2.22,16.07,3.53,3,8.16,2.79,11.74-1.4,7-8.17,2.41-14-3.75-19.23Z" transform="translate(-70.18 -76.55)"/><path class="cls-1" d="M325.67,374.85l-13.51,14.43-5.08-4.75,32.63-34.86,5.08,4.75-13.54,14.46L370.88,406l-5.59,6Z" transform="translate(-70.18 -76.55)"/><path class="cls-1" d="M353.21,336.67l42.93,43.64L390.35,386l-42.92-43.64Z" transform="translate(-70.18 -76.55)"/><path class="cls-1" d="M431.64,324.23c4.89,9.56,4.27,20.49-6.09,29.75-13.65,12.2-29.79,8-41.32-4.9-11.08-12.4-14.21-29.78-.34-42.18,10.76-9.62,22.09-8.7,30.26-2.27L408.09,310c-6.07-3.51-12.72-4.32-19.93,2.13-10.07,9-6,21.83,2.25,31.06,8,9,20.35,14.9,30.88,5.48,7-6.29,6.52-13.08,4.27-19Z" transform="translate(-70.18 -76.55)"/><path class="cls-1" d="M444.87,314.07c5.83,4.76,12.23,4.79,19.21-.68,7.52-5.89,7.74-11.74,4.17-16.3-3.78-4.83-8.28-5.68-19.77-.45C435,302.77,428,302,422.67,295.19c-5.61-7.16-4.9-17.13,5.86-25.55,11.48-9,21.4-6.05,27-.23L449,274.5c-4.22-3.61-9.66-5-16.69.48-5.87,4.59-7.1,9.82-3.5,14.41s7.66,4.18,17.71-.39c16.36-7.42,23-4,27.82,2.22,6.09,7.78,5.1,18.38-6.69,27.61-12.12,9.49-22.53,6.95-29.32.34Z" transform="translate(-70.18 -76.55)"/><path class="cls-1" d="M601.54,211.83c2.58,10.43-.52,20.92-12.72,27.57-16.08,8.76-30.83,1-39.11-14.21-8-14.6-7-32.23,9.3-41.14,12.68-6.91,23.49-3.42,30,4.7l-7.13,3.88c-5.12-4.8-11.4-7.11-19.9-2.48-11.86,6.46-10.83,19.89-4.9,30.76,5.75,10.55,16.41,19.15,28.82,12.39,8.28-4.52,9.33-11.25,8.5-17.57Z" transform="translate(-70.18 -76.55)"/><path class="cls-1" d="M597.86,161.34l11.23,24.08c.4-4.52,2.51-9.6,9.39-12.81,6.48-3,15.28-2.8,20.89,9.23l12,25.81-7,3.25L633,186.25c-3.21-6.88-7.9-9.34-13.78-6.59-7.28,3.39-8.25,9.7-4.32,18.12l10.31,22.11-7,3.26L590.88,164.6Z" transform="translate(-70.18 -76.55)"/><path class="cls-1" d="M689.47,181.58a70.41,70.41,0,0,0,4.19,8.8l-6.84,2.74A24.85,24.85,0,0,1,684,188c-.34,3.34-2.18,8.3-10.21,11.53-9.76,3.92-16.49-.76-19-7-3.71-9.25,1.85-16.39,14.16-21.33l7.06-2.84-1.42-3.53c-1.46-3.65-4.42-7.64-12.17-4.53-6.91,2.78-6.7,6.68-6.16,10.22l-6.92,2.78c-1.74-5.93-.86-13.94,11.06-18.69,10.13-4,17.38-2.17,21.17,7.25ZM678,173.22l-6.7,2.7c-8.25,3.31-11.75,7.37-9.41,13.21,1.73,4.3,5.94,6.25,11.05,4.2,10-4,8.62-11.26,5.6-18.78Z" transform="translate(-70.18 -76.55)"/><path class="cls-1" d="M694.22,155.65c-2.07-5.88-3.29-9.18-4.1-11.41l7.12-2.5c.53,1.14,1.8,4.41,3.24,8.51.2-6.47,3.93-11.91,10.82-14.56l2.54,7.24c-8.54,3.29-12.5,9.75-8.77,20.39l7.18,20.44L705,186.31Z" transform="translate(-70.18 -76.55)"/><path class="cls-1" d="M761.2,157.84a68.48,68.48,0,0,0,3.42,9.13l-7,2.15a24.4,24.4,0,0,1-2.4-5.38c-.63,3.3-2.89,8.09-11.18,10.6-10.06,3.06-16.35-2.18-18.32-8.68-2.9-9.53,3.26-16.16,16-20l7.28-2.21-1.1-3.64c-1.15-3.76-3.75-8-11.74-5.56-7.13,2.16-7.26,6.07-7,9.64L721.91,146c-1.22-6.05.35-13.95,12.63-17.65,10.44-3.15,17.51-.65,20.46,9.06Zm-10.69-9.31-6.91,2.1c-8.51,2.58-12.35,6.32-10.52,12.34,1.34,4.44,5.37,6.74,10.64,5.14,10.28-3.12,9.56-10.47,7.2-18.22Z" transform="translate(-70.18 -76.55)"/><path class="cls-1" d="M769,109.76l-19.17,4.87-1.71-6.74,46.27-11.76,1.71,6.74-19.18,4.88,13.37,52.58-7.92,2Z" transform="translate(-70.18 -76.55)"/><path class="cls-1" d="M812.77,92.44l12.59,59.91L817.42,154,804.83,94.11Z" transform="translate(-70.18 -76.55)"/><path class="cls-1" d="M885.53,124.33c-1,10.69-7.47,19.55-21.19,21.74-18.08,2.9-29.39-9.36-32.12-26.44-2.63-16.42,4.12-32.73,22.49-35.67C869,81.67,878,88.56,881.4,98.38l-8,1.28c-3.22-6.23-8.37-10.5-17.93-9-13.33,2.13-16.84,15.13-14.88,27.35,1.9,11.87,9.08,23.53,23,21.3,9.32-1.49,12.55-7.49,13.88-13.72Z" transform="translate(-70.18 -76.55)"/><path class="cls-1" d="M902.13,122.93c2.34,7.15,7.71,10.64,16.54,9.81,9.51-.89,12.86-5.7,12.32-11.46-.57-6.11-3.89-9.26-16.39-11.07-14.69-2.15-20.14-6.6-20.94-15.17C892.81,86,898.8,78,912.41,76.71c14.51-1.36,21.27,6.47,22.84,14.4l-8.22.77c-1.6-5.32-5.41-9.45-14.31-8.62C905.3,84,901.45,87.68,902,93.49s4.19,7.66,15.11,9.25c17.78,2.6,21.48,9.08,22.21,16.91.92,9.83-5.64,18.21-20.55,19.61-15.33,1.43-22.71-6.33-24.85-15.56Z" transform="translate(-70.18 -76.55)"/><text class="cls-2" transform="translate(912.8 39.61)">●</text><text class="cls-2" transform="translate(437.66 189.11) rotate(-32.73)">●</text><text class="cls-2" transform="translate(118.78 571.76) rotate(-65.45)">●</text><text class="cls-2" transform="matrix(-0.14, -0.99, 0.99, -0.14, 57.4, 1066.07)">●</text><text class="cls-2" transform="translate(273 1515.1) rotate(-130.91)">●</text><text class="cls-2" transform="translate(697.14 1776.28) rotate(-163.64)">●</text><text class="cls-2" transform="translate(1195.15 1766.69) rotate(163.64)">●</text><text class="cls-2" transform="matrix(-0.65, 0.76, -0.76, -0.65, 1608.92, 1489.38)">●</text><text class="cls-2" transform="translate(1807.08 1032.39) rotate(98.18)">●</text><text class="cls-2" transform="translate(1726.72 540.81) rotate(65.45)">●</text><text class="cls-2" transform="translate(1393.35 170.71) rotate(32.73)">●</text></svg>